<svg width="209" height="209" viewBox="0 0 209 209" fill="none" xmlns="http://www.w3.org/2000/svg">
<circle cx="104.297" cy="104.297" r="104.297" fill="white"/>
<path d="M54.622 110.181C55.0813 110.181 55.4347 110.393 55.682 110.817C55.9647 111.241 56.106 111.824 56.106 112.566C56.106 113.944 55.7703 115.039 55.099 115.852C51.601 120.127 47.8733 122.265 43.916 122.265C40.4887 122.265 37.7503 120.94 35.701 118.29C33.6517 115.64 32.627 111.842 32.627 106.895C32.627 105.694 32.68 104.492 32.786 103.291C30.454 103.715 27.91 104.033 25.154 104.245C23.3167 104.386 22.0623 104.475 21.391 104.51C20.6843 108.114 19.695 112.531 18.423 117.76C17.681 120.834 16.2677 122.371 14.183 122.371C11.9217 122.371 10.791 121.346 10.791 119.297C10.791 118.838 10.8793 118.202 11.056 117.389C12.2573 112.548 13.2113 108.45 13.918 105.093L11.374 105.199C10.208 105.199 9.36 105.005 8.83 104.616C8.3 104.192 8.035 103.521 8.035 102.602C8.035 101.436 8.37067 100.588 9.042 100.058C9.71333 99.4927 10.8263 99.1747 12.381 99.104L15.19 98.998C16.1087 94.016 16.568 90.2177 16.568 87.603C16.568 85.9423 16.3207 84.8117 15.826 84.211C15.3313 83.6103 14.6777 83.31 13.865 83.31C11.3917 83.31 8.60033 85.377 5.491 89.511C5.03167 90.1117 4.51933 90.412 3.954 90.412C3.45933 90.412 3.03533 90.1823 2.682 89.723C2.32867 89.2637 2.152 88.6807 2.152 87.974C2.152 86.8787 2.59367 85.7127 3.477 84.476C5.03167 82.3207 6.99267 80.554 9.36 79.176C11.7273 77.7627 14.13 77.056 16.568 77.056C18.8647 77.056 20.6313 77.851 21.868 79.441C23.14 80.9957 23.776 83.4337 23.776 86.755C23.776 89.6877 23.352 93.6627 22.504 98.68L27.698 98.415C29.924 98.309 31.832 98.1323 33.422 97.885C34.058 93.9983 35.0297 90.359 36.337 86.967C37.6443 83.575 39.2697 80.819 41.213 78.699C43.1563 76.579 45.3293 75.519 47.732 75.519C49.4987 75.519 50.8943 76.2257 51.919 77.639C52.9437 79.017 53.456 80.8367 53.456 83.098C53.456 91.8607 48.9863 97.938 40.047 101.33C39.941 102.743 39.888 104.21 39.888 105.729C39.888 109.439 40.3473 112.071 41.266 113.626C42.1847 115.181 43.4743 115.958 45.135 115.958C46.5837 115.958 47.9087 115.587 49.11 114.845C50.3113 114.068 51.6717 112.76 53.191 110.923C53.615 110.428 54.092 110.181 54.622 110.181ZM47.467 80.13C46.6897 80.13 45.8593 80.8367 44.976 82.25C44.128 83.6633 43.3153 85.589 42.538 88.027C41.7607 90.465 41.1423 93.1327 40.683 96.03C43.5097 94.864 45.5943 93.2033 46.937 91.048C48.2797 88.8927 48.951 86.119 48.951 82.727C48.951 81.9143 48.8097 81.2783 48.527 80.819C48.2443 80.3597 47.891 80.13 47.467 80.13ZM85.7293 105.729C86.1886 105.729 86.5419 105.959 86.7893 106.418C87.0366 106.877 87.1603 107.46 87.1603 108.167C87.1603 109.863 86.6479 110.87 85.6233 111.188C83.5033 111.93 81.1713 112.354 78.6273 112.46C77.9559 115.428 76.6309 117.813 74.6523 119.615C72.6736 121.382 70.4299 122.265 67.9213 122.265C65.8013 122.265 63.9816 121.753 62.4623 120.728C60.9783 119.703 59.8476 118.343 59.0703 116.647C58.2929 114.951 57.9043 113.114 57.9043 111.135C57.9043 108.45 58.4166 106.065 59.4413 103.98C60.4659 101.86 61.8793 100.217 63.6813 99.051C65.4833 97.8497 67.4796 97.249 69.6703 97.249C72.3556 97.249 74.5109 98.1853 76.1363 100.058C77.7969 101.895 78.7686 104.174 79.0513 106.895C80.7119 106.789 82.6906 106.436 84.9873 105.835C85.2699 105.764 85.5173 105.729 85.7293 105.729ZM68.3453 116.647C69.4759 116.647 70.4476 116.188 71.2603 115.269C72.1083 114.35 72.6736 113.025 72.9563 111.294C71.8609 110.552 71.0129 109.58 70.4123 108.379C69.8469 107.178 69.5643 105.906 69.5643 104.563C69.5643 103.998 69.6173 103.432 69.7233 102.867H69.4583C68.0449 102.867 66.8613 103.556 65.9073 104.934C64.9886 106.277 64.5293 108.185 64.5293 110.658C64.5293 112.601 64.9003 114.085 65.6423 115.11C66.4196 116.135 67.3206 116.647 68.3453 116.647ZM102.698 110.181C103.158 110.181 103.511 110.393 103.758 110.817C104.041 111.241 104.182 111.824 104.182 112.566C104.182 113.979 103.847 115.075 103.175 115.852C101.656 117.725 99.9954 119.262 98.1934 120.463C96.4267 121.664 94.4127 122.265 92.1514 122.265C89.042 122.265 86.7277 120.852 85.2084 118.025C83.7244 115.198 82.9824 111.541 82.9824 107.054C82.9824 102.743 83.53 97.832 84.6254 92.32C85.756 86.808 87.399 82.0733 89.5544 78.116C91.745 74.1587 94.342 72.18 97.3454 72.18C99.0414 72.18 100.366 72.975 101.32 74.565C102.31 76.1197 102.804 78.3633 102.804 81.296C102.804 85.5007 101.638 90.3767 99.3064 95.924C96.9744 101.471 93.8121 106.966 89.8194 112.407C90.0667 113.856 90.4731 114.898 91.0384 115.534C91.6037 116.135 92.3457 116.435 93.2644 116.435C94.7131 116.435 95.9851 116.029 97.0804 115.216C98.1757 114.368 99.5714 112.937 101.267 110.923C101.691 110.428 102.168 110.181 102.698 110.181ZM96.1794 77.427C95.3667 77.427 94.4481 78.8933 93.4234 81.826C92.3987 84.7587 91.4977 88.398 90.7204 92.744C89.943 97.09 89.519 101.259 89.4484 105.252C91.957 101.118 93.9534 96.984 95.4374 92.85C96.9214 88.6807 97.6634 84.8823 97.6634 81.455C97.6634 78.7697 97.1687 77.427 96.1794 77.427ZM106.841 93.804C105.357 93.804 104.244 93.4683 103.502 92.797C102.76 92.0903 102.389 91.1187 102.389 89.882C102.389 88.6453 102.866 87.6207 103.82 86.808C104.81 85.96 106.029 85.536 107.477 85.536C108.785 85.536 109.845 85.854 110.657 86.49C111.47 87.126 111.876 88.027 111.876 89.193C111.876 90.6063 111.417 91.737 110.498 92.585C109.58 93.3977 108.361 93.804 106.841 93.804ZM106.417 122.265C104.121 122.265 102.442 121.452 101.382 119.827C100.358 118.202 99.8455 116.046 99.8455 113.361C99.8455 111.771 100.04 109.739 100.428 107.266C100.852 104.757 101.382 102.425 102.018 100.27C102.336 99.1393 102.76 98.362 103.29 97.938C103.82 97.514 104.668 97.302 105.834 97.302C107.636 97.302 108.537 97.9027 108.537 99.104C108.537 99.9873 108.202 102.037 107.53 105.252C106.682 109.139 106.258 111.771 106.258 113.149C106.258 114.209 106.4 115.022 106.682 115.587C106.965 116.152 107.442 116.435 108.113 116.435C108.749 116.435 109.544 115.993 110.498 115.11C111.452 114.227 112.724 112.831 114.314 110.923C114.738 110.428 115.215 110.181 115.745 110.181C116.205 110.181 116.558 110.393 116.805 110.817C117.088 111.241 117.229 111.824 117.229 112.566C117.229 113.979 116.894 115.075 116.222 115.852C112.724 120.127 109.456 122.265 106.417 122.265ZM143.045 110.181C143.505 110.181 143.858 110.393 144.105 110.817C144.388 111.241 144.529 111.824 144.529 112.566C144.529 113.979 144.194 115.075 143.522 115.852C142.074 117.619 140.484 119.138 138.752 120.41C137.021 121.647 135.307 122.265 133.611 122.265C130.926 122.265 128.877 120.693 127.463 117.548C125.979 119.421 124.672 120.675 123.541 121.311C122.446 121.947 121.156 122.265 119.672 122.265C117.517 122.265 115.733 121.47 114.319 119.88C112.941 118.255 112.252 116.152 112.252 113.573C112.252 110.746 112.853 108.132 114.054 105.729C115.256 103.291 116.899 101.312 118.983 99.793C121.103 98.2383 123.471 97.3197 126.085 97.037C126.757 90.1823 128.029 84.3347 129.901 79.494C131.809 74.618 134.3 72.18 137.374 72.18C138.894 72.18 140.148 72.869 141.137 74.247C142.162 75.625 142.674 77.7097 142.674 80.501C142.674 84.4583 141.703 89.087 139.759 94.387C137.816 99.687 135.219 105.128 131.968 110.711C132.11 112.76 132.41 114.227 132.869 115.11C133.364 115.993 133.982 116.435 134.724 116.435C135.678 116.435 136.65 116.011 137.639 115.163C138.629 114.315 139.954 112.902 141.614 110.923C142.038 110.428 142.515 110.181 143.045 110.181ZM136.791 77.374C136.12 77.374 135.449 78.5753 134.777 80.978C134.106 83.3453 133.523 86.4547 133.028 90.306C132.569 94.1573 132.233 98.1853 132.021 102.39C135.979 93.7687 137.957 86.8433 137.957 81.614C137.957 80.2713 137.834 79.229 137.586 78.487C137.374 77.745 137.109 77.374 136.791 77.374ZM121.527 116.912C122.199 116.912 122.87 116.647 123.541 116.117C124.213 115.552 125.061 114.527 126.085 113.043C125.732 111.135 125.555 108.997 125.555 106.63C125.555 105.782 125.591 104.404 125.661 102.496C123.718 103.097 122.093 104.404 120.785 106.418C119.513 108.397 118.877 110.605 118.877 113.043C118.877 115.622 119.761 116.912 121.527 116.912ZM146.219 122.265C144.029 122.265 142.28 121.47 140.972 119.88C139.665 118.29 139.011 116.205 139.011 113.626C139.011 110.799 139.665 108.132 140.972 105.623C142.28 103.079 144.011 101.047 146.166 99.528C148.357 97.9733 150.671 97.196 153.109 97.196C153.887 97.196 154.399 97.355 154.646 97.673C154.929 97.9557 155.159 98.4857 155.335 99.263C156.077 99.1217 156.855 99.051 157.667 99.051C159.399 99.051 160.264 99.6693 160.264 100.906C160.264 101.648 159.999 103.415 159.469 106.206C158.657 110.269 158.25 113.096 158.25 114.686C158.25 115.216 158.374 115.64 158.621 115.958C158.904 116.276 159.257 116.435 159.681 116.435C160.353 116.435 161.165 116.011 162.119 115.163C163.073 114.28 164.363 112.866 165.988 110.923C166.412 110.428 166.889 110.181 167.419 110.181C167.879 110.181 168.232 110.393 168.479 110.817C168.762 111.241 168.903 111.824 168.903 112.566C168.903 113.979 168.568 115.075 167.896 115.852C166.448 117.654 164.911 119.173 163.285 120.41C161.66 121.647 160.088 122.265 158.568 122.265C157.402 122.265 156.325 121.876 155.335 121.099C154.381 120.286 153.657 119.191 153.162 117.813C151.325 120.781 149.011 122.265 146.219 122.265ZM148.127 116.912C148.905 116.912 149.647 116.453 150.353 115.534C151.06 114.615 151.572 113.396 151.89 111.877L153.851 102.125C152.367 102.16 150.989 102.726 149.717 103.821C148.481 104.881 147.491 106.294 146.749 108.061C146.007 109.828 145.636 111.7 145.636 113.679C145.636 114.774 145.848 115.587 146.272 116.117C146.732 116.647 147.35 116.912 148.127 116.912ZM190.008 110.181C190.467 110.181 190.82 110.393 191.068 110.817C191.35 111.241 191.492 111.824 191.492 112.566C191.492 113.873 191.156 114.969 190.485 115.852C188.824 118.007 186.757 119.703 184.284 120.94C181.846 122.177 179.09 122.795 176.016 122.795C173.613 122.795 171.528 122.442 169.762 121.735C167.995 120.993 166.635 120.004 165.681 118.767C164.762 117.495 164.303 116.082 164.303 114.527C164.303 112.195 165.239 110.128 167.112 108.326C168.984 106.524 171.67 104.793 175.168 103.132L166.476 103.344C165.698 103.379 165.098 103.114 164.674 102.549C164.285 101.948 164.091 101.242 164.091 100.429C164.091 99.581 164.285 98.839 164.674 98.203C165.098 97.5317 165.663 97.196 166.37 97.196C167.995 97.196 170.168 97.3197 172.889 97.567C173.454 97.6023 174.479 97.673 175.963 97.779C177.482 97.885 178.754 97.938 179.779 97.938C180.132 97.938 180.803 97.7967 181.793 97.514C181.969 97.4787 182.305 97.3903 182.8 97.249C183.33 97.1077 183.771 97.037 184.125 97.037C184.69 97.037 185.149 97.2843 185.503 97.779C185.891 98.2737 186.086 99.0333 186.086 100.058C186.086 101.189 185.821 102.072 185.291 102.708C184.761 103.344 183.93 103.909 182.8 104.404C179.584 105.782 176.917 107.266 174.797 108.856C172.677 110.411 171.617 111.965 171.617 113.52C171.617 114.509 172.076 115.322 172.995 115.958C173.913 116.594 175.274 116.912 177.076 116.912C179.054 116.912 181.051 116.417 183.065 115.428C185.114 114.439 186.951 112.937 188.577 110.923C189.001 110.428 189.478 110.181 190.008 110.181ZM206.136 111.771C206.595 111.771 206.949 111.983 207.196 112.407C207.479 112.831 207.62 113.414 207.62 114.156C207.62 115.428 207.32 116.523 206.719 117.442C205.73 118.961 204.422 120.145 202.797 120.993C201.207 121.841 199.299 122.265 197.073 122.265C193.681 122.265 191.049 121.258 189.176 119.244C187.303 117.195 186.367 114.439 186.367 110.976C186.367 108.538 186.879 106.277 187.904 104.192C188.929 102.072 190.342 100.394 192.144 99.157C193.981 97.9203 196.048 97.302 198.345 97.302C200.394 97.302 202.037 97.9203 203.274 99.157C204.511 100.358 205.129 102.001 205.129 104.086C205.129 106.524 204.246 108.626 202.479 110.393C200.748 112.124 197.78 113.502 193.575 114.527C194.423 116.152 195.854 116.965 197.868 116.965C199.317 116.965 200.5 116.629 201.419 115.958C202.373 115.287 203.468 114.156 204.705 112.566C205.129 112.036 205.606 111.771 206.136 111.771ZM197.444 102.496C196.137 102.496 195.024 103.256 194.105 104.775C193.222 106.294 192.78 108.132 192.78 110.287V110.393C194.865 109.898 196.508 109.156 197.709 108.167C198.91 107.178 199.511 106.029 199.511 104.722C199.511 104.051 199.317 103.521 198.928 103.132C198.575 102.708 198.08 102.496 197.444 102.496Z" fill="#D23D0F"/>
</svg>
